<?xml version="1.0" standalone="no"?>
<!DOCTYPE svg PUBLIC "-//W3C//DTD SVG 20010904//EN"
 "http://www.w3.org/TR/2001/REC-SVG-20010904/DTD/svg10.dtd">
<svg version="1.0" xmlns="http://www.w3.org/2000/svg"
 width="512.000000pt" height="512.000000pt" viewBox="0 0 512.000000 512.000000"
 preserveAspectRatio="xMidYMid meet">
<metadata>
Created by potrace 1.14, written by Peter Selinger 2001-2017
</metadata>
<g transform="translate(0.000000,512.000000) scale(0.100000,-0.100000)"
fill="#000000" stroke="none">
<path d="M2369 5095 c-126 -34 -237 -126 -290 -239 l-31 -66 -179 0 c-201 0
-237 -8 -263 -59 -9 -16 -16 -48 -16 -71 l0 -40 -212 0 c-118 0 -231 -5 -253
-11 -169 -44 -301 -192 -322 -359 -4 -36 -8 -823 -7 -1750 l1 -1685 22 -68
c47 -140 170 -254 311 -286 46 -11 1800 -16 1800 -6 0 3 -14 34 -32 68 -17 34
-43 96 -58 137 l-26 75 -810 1 c-897 0 -846 -3 -896 66 l-23 33 0 1702 0 1702
21 28 c46 62 68 67 283 67 l196 1 5 -102 c5 -100 6 -104 38 -135 l32 -33 800
-1 c720 -1 803 0 832 15 57 29 68 55 69 161 l1 96 196 -1 c158 -1 203 -5 227
-17 40 -21 60 -46 73 -88 7 -24 11 -370 11 -1075 0 -572 0 -1045 0 -1051 1 -7
34 -14 84 -17 45 -4 93 -9 107 -12 14 -3 41 -8 60 -11 l35 -6 -2 1096 c-2
1187 -1 1154 -57 1250 -32 54 -94 118 -148 152 -83 53 -108 57 -353 63 l-230
6 -5 45 c-7 57 -33 95 -72 109 -18 6 -109 11 -214 11 -159 0 -184 2 -184 15 0
33 -55 122 -109 175 -109 109 -271 154 -412 115z m179 -241 c76 -31 113 -85
127 -183 4 -24 13 -55 22 -68 31 -47 59 -53 248 -53 l175 0 1 -27 c1 -28 1
-145 0 -195 l-1 -28 -645 0 -645 0 -1 30 c0 17 0 68 0 115 0 47 0 90 0 95 1 6
65 10 171 10 186 0 223 8 253 53 9 14 19 45 21 69 9 88 48 145 121 179 49 23
104 24 153 3z"/>
<path d="M1985 3879 c-11 -6 -80 -91 -154 -190 -74 -98 -135 -178 -136 -176
-1 1 -28 36 -60 77 -80 104 -119 122 -169 78 -23 -22 -30 -40 -27 -80 1 -17
183 -264 210 -285 23 -18 73 -15 97 5 12 9 97 118 190 242 186 249 195 269
140 316 -29 25 -58 29 -91 13z"/>
<path d="M2284 3635 c-71 -36 -84 -130 -25 -189 l31 -31 558 -3 c545 -2 558
-2 590 18 66 41 76 133 20 187 l-29 28 -557 2 c-482 2 -561 1 -588 -12z"/>
<path d="M1993 3210 c-12 -5 -84 -91 -159 -191 l-137 -183 -26 34 c-81 106
-109 135 -137 141 -56 11 -104 -37 -95 -95 1 -10 50 -81 107 -158 105 -139
111 -144 169 -139 11 1 34 17 50 36 61 68 333 441 338 464 9 37 -10 71 -48 86
-19 8 -36 15 -37 14 -2 0 -13 -4 -25 -9z"/>
<path d="M2290 2964 c-34 -15 -70 -67 -70 -102 0 -38 30 -92 61 -107 23 -13
116 -15 578 -15 374 0 558 3 574 11 26 12 56 55 63 92 7 36 -15 85 -49 109
l-32 23 -547 1 c-418 0 -555 -3 -578 -12z"/>
<path d="M1984 2534 c-7 -3 -74 -88 -150 -189 l-137 -183 -63 82 c-34 46 -70
86 -79 90 -57 21 -116 -15 -117 -73 -1 -24 21 -59 103 -168 113 -150 139 -169
187 -142 30 16 345 425 368 477 17 38 12 64 -19 92 -19 19 -65 25 -93 14z"/>
<path d="M2340 2300 c-25 -3 -55 -11 -67 -18 -29 -16 -53 -62 -53 -100 0 -40
39 -95 77 -107 20 -7 230 -10 575 -10 l543 0 32 23 c36 25 55 78 46 123 -6 33
-46 77 -77 85 -29 7 -1019 10 -1076 4z"/>
<path d="M3725 1999 c-414 -60 -750 -378 -840 -798 -22 -100 -14 -342 15 -446
97 -355 372 -624 733 -717 88 -23 301 -31 402 -14 119 19 279 84 388 158 353
239 516 676 406 1088 -97 363 -401 644 -780 721 -71 14 -248 19 -324 8z m295
-248 c216 -43 418 -197 519 -397 123 -244 110 -520 -37 -753 -180 -287 -548
-418 -872 -312 -247 81 -445 297 -503 549 -70 302 67 641 325 805 91 58 201
102 287 113 25 3 48 8 49 9 8 7 179 -4 232 -14z"/>
<path d="M4204 1441 c-17 -4 -35 -11 -41 -14 -5 -3 -99 -125 -208 -270 l-199
-264 -88 116 c-98 129 -133 155 -196 140 -53 -12 -84 -48 -89 -106 l-5 -49
143 -189 c79 -105 152 -198 164 -207 11 -10 34 -20 52 -24 67 -13 85 5 357
368 240 320 256 343 256 383 0 50 -28 91 -76 111 -19 8 -35 14 -36 13 -2 -1
-17 -4 -34 -8z"/>
<path d="M1985 1858 c-11 -5 -78 -88 -150 -185 -71 -96 -133 -176 -136 -178
-3 -2 -32 32 -65 75 -64 86 -96 107 -141 93 -38 -12 -65 -66 -52 -102 11 -28
182 -258 207 -278 24 -19 79 -16 101 6 54 54 354 467 358 492 3 23 -3 36 -26
59 -30 31 -60 37 -96 18z"/>
<path d="M2300 1622 c-72 -32 -97 -97 -64 -167 29 -61 50 -65 348 -65 l265 0
35 75 c19 42 49 96 65 120 l30 45 -332 -1 c-183 0 -339 -3 -347 -7z"/>
</g>
</svg>
